<svg width="516" height="248" viewBox="0 0 516 248" fill="none" xmlns="http://www.w3.org/2000/svg">
<g clip-path="url(#clip0_6_25)">
<path d="M83.4961 203.703L0 153.166V92.5215L83.4961 42.5703V95.1582L33.3984 123.283L83.4961 151.262V203.703Z" fill="black"/>
<path d="M432.504 203.703V151.262L482.602 123.283L432.504 95.1582V42.5703L516 92.5215V153.166L432.504 203.703Z" fill="black"/>
<path d="M343 204L380.61 42H414L376.298 204H343Z" fill="black"/>
<g clip-path="url(#clip1_6_25)">
<path d="M234.422 31.5254C231.048 29.9041 224.964 30.8649 219.361 29.9642C208.096 28.1627 206.711 24.9801 206.711 22.6382C206.651 20.1763 204.422 20.0562 204.422 22.6983C204.482 38.3109 228.036 30.3244 234.723 34.3477M157.795 26.1811C157.855 21.9777 154.964 19.2755 152.434 19.0353C153.94 20.7767 154.241 23.2988 154.482 25.7608C154 22.278 151.41 19.9961 149.181 19.876C150.386 21.137 151.048 23.7191 151.169 26.2412C150.807 24.3196 149 21.4373 145.988 21.137C147.373 22.5782 147.795 25.2804 148.096 27.7424C147.675 25.6407 145.506 23.2387 143.096 23.0586C144.12 23.8993 144.964 26.9617 145.145 29.3036C144.843 28.3428 143.157 26.001 140.506 25.7007C141.892 26.9617 142.494 30.0242 142.735 32.4261M153.277 89.7123C152.554 86.4097 149.663 82.9269 146.41 83.3472C147.916 84.368 149.06 88.2111 149.482 90.6731C148.458 87.9109 145.928 84.9685 142.916 85.3288C144.542 86.77 145.506 90.3128 146.108 92.9549C144.482 89.8925 142.494 87.6106 139.542 87.9709C141.53 89.8925 142.253 93.2552 142.735 95.8373C141.771 93.6755 139.542 91.0334 136.53 91.3336C138.398 93.015 139.181 96.678 139.843 99.3801C138.639 97.7588 136.831 95.477 134 95.7172C135.867 97.5186 136.711 101.061 137.494 103.764M162.916 207.227C159.723 205.306 155.325 205.966 153.277 208.608C155.566 208.188 158.94 209.449 160.265 210.53C158.096 209.149 153.578 209.989 151.831 212.391C153.88 211.851 157.193 213.232 158.94 214.253C156.651 213.472 153.096 213.652 150.867 216.354C152.735 215.934 155.807 216.955 157.795 218.096C154.964 217.435 152.193 218.516 150.566 220.438C153.036 219.897 155.807 221.338 157.494 222.119C154.301 222.059 152.373 223.32 151.229 224.641C153.277 224.221 156.41 225.302 158.699 226.503M246.711 226.983C242.554 226.443 239.12 228.965 238.096 231.907C239.241 231.006 242.855 230.466 245.205 231.186C241.952 231.006 238.699 233.648 238.036 236.05C239.361 234.969 243.578 234.669 245.145 235.33C242.193 235.45 239.361 237.672 238.518 240.134C239.904 239.233 243.759 238.873 245.928 239.413C242.735 239.893 240.446 242.175 239.723 244.277C241.651 243.016 244.181 243.136 247.313 243.316C244.06 244.517 242.976 245.898 241.892 248.06C243.699 246.919 246.892 246.859 250.024 247.099" fill="black"/>
<path d="M225.144 6.54505L210.446 7.08549C209.723 7.14554 209.181 7.50583 209.181 8.34651C209.241 13.6308 210.265 17.0535 214.06 19.8158C213.578 22.7581 213.879 24.2593 216.952 26.7213C217.253 24.3194 218.217 23.2385 219.723 22.2177C219.843 22.2777 219.964 22.2777 220.024 22.3378C219.843 23.4187 219.843 24.5596 220.084 25.2201C220.687 26.9015 223.638 26.9615 224.422 25.7605C225.144 27.502 226.65 27.562 227.855 27.562C229.12 27.562 229.723 26.6613 230.144 25.8206C230.867 26.4211 231.59 27.0816 232.253 27.9223C234.361 30.8046 234.723 34.5276 234.723 38.0705C234.06 38.1305 233.397 38.1906 232.735 38.2506V36.8095C232.675 34.7678 227.915 34.4075 226.831 36.1489C225.626 34.8279 221.891 35.0681 221.891 37.1698V37.8303C221.048 36.7494 220.385 35.6085 219.843 34.4676C218.337 35.4283 217.434 36.1489 217.675 39.5717C217.012 39.6317 216.349 39.6918 215.747 39.7518C215.807 43.715 217.554 44.7959 231.771 44.4957C232.132 48.4589 228.156 50.6806 225.205 52.5421C217.494 56.9257 209.361 61.7296 204.964 69.776C201.289 76.1412 200.385 83.7073 200.807 91.0332L205.024 89.1717L205.506 91.4535C197.915 95.0564 184.06 102.382 174.964 106.586C172.735 107.607 166.952 109.048 165.747 107.006C161.59 99.8603 158.277 94.4559 153.458 88.9915C150.988 86.1693 134.602 99.6802 137.614 104.244C144.482 114.632 155.687 129.524 174.361 129.644C193.699 129.764 210.506 122.679 214.181 121.598L214.964 124.06C212.494 125.141 210.325 125.921 207.735 126.762C211.108 139.973 215.024 145.137 224.12 153.183L222.253 154.564C220.626 153.604 217.855 150.541 216.349 149.1C197.012 158.227 189.783 167.355 185.144 176.782C180.024 188.131 180.988 201.042 183.156 212.992C183.578 214.973 181.409 215.934 179.783 215.333C175.325 214.313 172.855 209.869 168.578 208.248C166.65 207.407 164.12 206.446 162.012 206.807C158.578 207.407 154.903 224.701 158.397 226.382C164.903 229.565 172.012 230.225 179.241 233.948C184 235.87 188.578 238.993 194 238.152C197.072 237.852 200.144 235.75 200.446 232.507C203.156 220.858 206.952 208.488 215.867 200.081C220.144 195.878 225.687 192.515 231.168 189.933C229 181.646 227.373 173.36 227.554 164.713L230.205 164.593C232.132 197.499 240.928 204.405 256.409 219.717C257.976 221.278 257.855 224.221 255.566 225.121C252.554 226.623 249 226.683 245.566 226.863C241.891 227.043 244.662 247.339 250.084 247.159C259.602 246.859 269.482 239.473 275.205 232.207C277.614 229.205 280.506 226.202 282.795 223.26C285.626 219.597 282.554 215.333 281.711 211.971C279.361 202.363 278.277 174.741 278.156 170.898L281.53 170.958L282.012 163.992C271.952 151.562 273.578 132.106 269.422 119.556C267.795 114.452 265.988 109.168 265.988 103.763C265.988 96.4375 274.301 82.6865 274.12 70.4366C274.06 65.2724 271.168 58.547 271.229 55.4845C271.289 46.5974 276.409 48.5189 276.289 30.024C276.229 24.9199 275.626 21.1368 274.301 15.9126C283.277 6.48501 270.928 -2.9426 263.819 2.94215C258.096 1.44094 257.373 -0.0602722 246.168 -0.0602722C236.59 -0.0602722 231.108 2.52181 225.144 6.48501M207.795 61.6095C190.205 56.4453 177.735 54.1034 170.747 48.8191C163.699 43.4748 166.831 31.7053 158.337 25.4603C154.12 22.3378 140.807 29.7237 142.855 32.9063C155.928 53.2027 138.458 58.0666 198.156 92.054C197.915 73.2589 201.47 69.3557 207.795 61.6095Z" fill="black"/>
<path d="M246.108 17.9545C239 6.72543 233.277 5.58451 231.169 13.691C230.325 16.9937 233.217 16.9337 233.88 14.4717C234.663 11.7094 235.988 8.82712 241.229 16.8136C241.711 17.4741 243.337 17.9545 244.241 17.9545M263.699 12.0697C265.386 10.3884 267.374 8.94722 269.723 7.9264C272.554 6.96562 271.108 4.0833 267.554 5.28427C265.145 6.0649 262.916 7.9264 261.47 9.84795M214.723 20.2363C214.181 22.0978 214.843 24.1995 216.47 25.3404C216.771 24.0194 217.735 22.8184 218.759 21.9777C216.892 21.4373 215.627 20.7768 214.723 20.2363ZM224.361 23.4189C223.157 23.0586 221.892 22.8184 220.687 22.5182C220.446 23.4189 220.446 24.3797 220.627 24.9201C221.108 26.2412 223.337 26.3012 223.94 25.3404C224.181 24.9802 224.361 24.1995 224.361 23.4189ZM225.084 23.599C224.904 24.3196 224.783 25.1603 225.084 25.7608C225.687 26.9017 226.771 26.9617 227.735 26.9617C228.819 26.9617 229.361 26.2412 229.663 25.5206C228.277 24.6199 226.711 24.0794 225.084 23.599ZM221.831 39.2116V38.7913C220.988 37.7705 220.265 36.6295 219.602 35.4286C218.277 36.3894 218.096 37.8305 218.277 39.5119M226.711 38.7913V37.2901C226.651 35.4286 222.434 35.3085 222.434 37.2901V39.1816M232.133 38.3109V36.9898C232.133 35.1884 227.253 35.0683 227.253 37.0499V38.7312" fill="white"/>
</g>
</g>
<defs>
<clipPath id="clip0_6_25">
<rect width="516" height="248" fill="white"/>
</clipPath>
<clipPath id="clip1_6_25">
<rect width="150" height="248" fill="white" transform="translate(134)"/>
</clipPath>
</defs>
</svg>
